<svg id="1" data-name="1" xmlns="http://www.w3.org/2000/svg" viewBox="0 0 178.89 133.32"><defs><style>.cls-1,.cls-2{fill:#fff;}.cls-1{opacity:0.5;}</style></defs><title>AW_logo</title><polygon class="cls-1" points="142.49 84.92 139.35 83.64 172.72 4.31 175.86 5.59 142.49 84.92"/><polygon class="cls-1" points="138.46 84.94 141.6 83.65 108.23 4.33 105.09 5.61 138.46 84.94"/><circle class="cls-2" cx="106.48" cy="4.46" r="4.44"/><circle class="cls-2" cx="174.44" cy="4.44" r="4.44"/><circle class="cls-2" cx="140.47" cy="85.42" r="4.44"/><polygon class="cls-1" points="74.49 84.92 71.35 83.64 104.72 4.31 107.86 5.59 74.49 84.92"/><polygon class="cls-1" points="70.46 84.94 73.6 83.65 40.23 4.33 37.09 5.61 70.46 84.94"/><polygon class="cls-1" points="69.45 85.37 74.59 83.25 41.22 3.92 36.09 6.04 69.45 85.37"/><circle class="cls-2" cx="38.48" cy="4.46" r="4.44"/><circle class="cls-2" cx="106.44" cy="4.44" r="4.44"/><circle class="cls-2" cx="72.47" cy="85.42" r="4.44"/><polygon class="cls-1" points="36.39 4.94 39.53 6.22 6.17 85.55 3.03 84.27 36.39 4.94"/><circle class="cls-2" cx="4.44" cy="85.42" r="4.44"/><path class="cls-2" d="M99.24,116l.85-.64L99,115c-.14,0-3.45-.94-5.73.77-1.07.81-4.41,3.18-6.62,4.75l-1.19.85v-6.47H81.23v18.23H85.5v-7.67c.75.38,2.19,1.13,3.86,2.05,2.85,1.59,9.91,5.62,9.91,5.62l.27-.88a3.58,3.58,0,0,0-1.84-4.16l0,0c-1.46-.84-5.08-2.92-8.41-4.67l7.13-5.3Z"/><path class="cls-2" d="M122.19,131.47h0a2.37,2.37,0,0,0-1.16-1.52,4.85,4.85,0,0,0-2.87-.47l-.33,0c-.64,0-2,.1-3.61.1-3.24,0-4.78-1-4.79-2.15s1-2.06,4.5-2.3l6.66-.12.14-1.41c0-.72-.66-1.94-2.66-1.94h-3.89c-1.28,0-4.85-.21-4.79-2,0-1.64,2.79-2,5.5-2.11a35,35,0,0,1,6,.42l.51.09,0-.72c0-.46-.29-2-2.87-2.74a14.69,14.69,0,0,0-4.63-.39c-5.06,0-8.91,2.56-8.92,5.15,0,3.23,1.44,3.57,2.8,4.47-1.91,1-2.81,2.35-2.81,4.08,0,3.48,3.42,5,8.94,5,1.75,0,4.16-.1,7.15-.31l.28,0a1,1,0,0,0,.82-.37.81.81,0,0,0,.15-.64Z"/><path class="cls-2" d="M148.26,115.29a2.27,2.27,0,0,0-1.6-.37h-2.23v11.74l-11.77-11.52-.22-.22h-4.3v18.23h4.27V120.76l12.94,12.39h3.76V117.24A2.3,2.3,0,0,0,148.26,115.29Z"/><path class="cls-2" d="M164.61,122l-.85-.21c-2.14-.52-4-1-4-2.16a.85.85,0,0,1,.43-.87,6.19,6.19,0,0,1,3.45-.77,20.65,20.65,0,0,1,6.93,1.4l.62.24.08-.32a3.92,3.92,0,0,0,.05-.89,3.65,3.65,0,0,0-2.46-3.09,12,12,0,0,0-5.22-.92c-3,0-5.89.82-7.3,2.24a3.91,3.91,0,0,0-1.2,2.83c0,3.74,4.23,5.16,8.32,6.15,3.08.74,5.11,1.32,5.13,2.6a.82.82,0,0,1-.25.62c-.79.8-3.15.8-4.28.8h-.16c-3.23,0-7.95-2.28-8-2.3l-.4-.2-.19,4.19.42.22a23.5,23.5,0,0,0,8.14,1.76c3,0,5.4-.62,6.93-1.78a4.2,4.2,0,0,0,1.8-3.47C172.55,124.51,168.53,123,164.61,122Z"/><path class="cls-2" d="M12.23,114.92H9.48L.36,133.15H4.89l1.87-3.88H17.12L19,133.15h4.53L15.3,116.74A3.58,3.58,0,0,0,12.23,114.92Zm3.15,10.86H8.51l3.43-6.87Z"/><path class="cls-2" d="M65.37,114.92H62.62L53.5,133.15H58l1.87-3.88H70.26l1.87,3.88h4.53l-8.22-16.41A3.58,3.58,0,0,0,65.37,114.92Zm3.15,10.86H61.65l3.43-6.87Z"/><path class="cls-2" d="M49.19,114.93c-2.12.1-2.62,1.34-2.74,1.85-.09.35,0-.22-1.29,9.08l-5-8.39a5,5,0,0,0-.29-.45h0a1.77,1.77,0,0,0-1.33-.55h0a1.77,1.77,0,0,0-1.33.55l0,0a4.21,4.21,0,0,0-.29.44l-5,8.39c-1.33-9.31-1.21-8.74-1.29-9.08-.12-.51-.63-1.76-2.74-1.86l-1.74,0,2.53,18.23h3.92l.11-.39,1.5-2.69,4.4-7.84,4.4,7.84,1.5,2.69.11.39h3.92l2.53-18.23Z"/></svg>
